<?xml version="1.0" encoding="UTF-8" standalone="no"?>
<svg
   xmlns:dc="http://purl.org/dc/elements/1.1/"
   xmlns:cc="http://creativecommons.org/ns#"
   xmlns:rdf="http://www.w3.org/1999/02/22-rdf-syntax-ns#"
   xmlns:svg="http://www.w3.org/2000/svg"
   xmlns="http://www.w3.org/2000/svg"
   xmlns:sodipodi="http://sodipodi.sourceforge.net/DTD/sodipodi-0.dtd"
   xmlns:inkscape="http://www.inkscape.org/namespaces/inkscape"
   version="1.0"
   width="512.000000pt"
   height="512.000000pt"
   viewBox="0 0 512.000000 512.000000"
   preserveAspectRatio="xMidYMid meet"
   id="svg3388"
   inkscape:version="0.91 r13725"
   sodipodi:docname="claim.svg">
  <defs
     id="defs3400" />
  <sodipodi:namedview
     pagecolor="#ffffff"
     bordercolor="#666666"
     borderopacity="1"
     objecttolerance="10"
     gridtolerance="10"
     guidetolerance="10"
     inkscape:pageopacity="0"
     inkscape:pageshadow="2"
     inkscape:window-width="1920"
     inkscape:window-height="1161"
     id="namedview3398"
     showgrid="false"
     showguides="false"
     inkscape:zoom="0.75703125"
     inkscape:cx="439.93782"
     inkscape:cy="198.16348"
     inkscape:window-x="1920"
     inkscape:window-y="0"
     inkscape:window-maximized="1"
     inkscape:current-layer="svg3388" />
  <metadata
     id="metadata3390">
Created by potrace 1.15, written by Peter Selinger 2001-2017
<rdf:RDF>
  <cc:Work
     rdf:about="">
    <dc:format>image/svg+xml</dc:format>
    <dc:type
       rdf:resource="http://purl.org/dc/dcmitype/StillImage" />
  </cc:Work>
</rdf:RDF>
</metadata>
  <g
     transform="matrix(0.08,0,0,-0.08,51.2,460.8)"
     id="g3392"
     style="fill:#000000;stroke:none">
    <path
       d="M 900,5097 C 768,5052 658,4956 594,4829 528,4696 530,4751 530,3523 l 0,-1113 -265,0 L 0,2410 0,1205 0,0 l 2560,0 2560,0 0,1205 0,1205 -265,0 -265,0 0,1103 c 0,1216 2,1175 -63,1312 -61,128 -183,235 -314,275 -64,20 -91,20 -1657,20 l -1591,-1 -65,-22 z m 3209,-433 c 53,-37 51,0 51,-1169 l 0,-1085 -360,0 -360,0 0,-99 c 0,-621 -639,-1051 -1210,-814 -250,104 -432,302 -515,563 -22,69 -28,110 -33,218 l -5,132 -358,0 -359,0 0,1090 c 0,1181 -2,1126 52,1164 20,14 182,16 1548,16 1394,0 1528,-1 1549,-16 z M 1300,1878 c 139,-398 447,-701 845,-831 148,-48 237,-62 415,-62 178,0 266,13 415,62 391,126 715,446 845,831 l 29,87 416,3 415,2 0,-765 0,-765 -2120,0 -2120,0 0,765 0,765 414,0 413,0 33,-92 z"
       id="path3394"
       inkscape:connector-curvature="0" />
    <path
       d="m 3622,4444 c -23,-9 -65,-37 -92,-62 -26,-26 -281,-294 -565,-597 -285,-302 -534,-567 -555,-588 l -37,-38 -287,305 c -321,340 -331,348 -452,354 -91,5 -155,-21 -218,-88 -64,-68 -79,-109 -80,-210 0,-73 4,-92 26,-135 17,-34 161,-194 432,-482 458,-485 448,-477 582,-477 134,0 99,-32 888,807 491,521 711,761 728,795 32,65 33,195 1,263 -25,57 -84,118 -138,144 -53,26 -174,30 -233,9 z"
       id="path3396"
       inkscape:connector-curvature="0" />
  </g>
  <rect
     style="fill:none"
     id="rect3402"
     width="514.64191"
     height="512.52838"
     x="-1.0567596"
     y="-0.5283795" />
</svg>
